<?xml version="1.0" encoding="UTF-8" standalone="no"?>
<!DOCTYPE svg PUBLIC "-//W3C//DTD SVG 1.1//EN"
 "http://www.w3.org/Graphics/SVG/1.1/DTD/svg11.dtd">
<!-- Generated by graphviz version 2.44.1 (20200629.0846)
 -->
<!-- Title: dependencies Pages: 1 -->
<svg width="504pt" height="284pt"
 viewBox="0.00 0.00 504.00 284.00" xmlns="http://www.w3.org/2000/svg" xmlns:xlink="http://www.w3.org/1999/xlink">
<g id="graph0" class="graph" transform="scale(1 1) rotate(0) translate(4 280)">
<title>dependencies</title>
<polygon fill="white" stroke="transparent" points="-4,4 -4,-280 500,-280 500,4 -4,4"/>
<text text-anchor="start" x="227.01" y="-42.4" font-family="sans-serif" font-weight="bold" font-size="14.00">Legend</text>
<polygon fill="#ffffb3" stroke="transparent" points="14,-10 14,-30 34,-30 34,-10 14,-10"/>
<text text-anchor="start" x="37.63" y="-15.4" font-family="sans-serif" font-size="14.00"> &#160;Declarations</text>
<polygon fill="#8dd3c7" stroke="transparent" points="127,-10 127,-30 147,-30 147,-10 127,-10"/>
<text text-anchor="start" x="150.73" y="-15.4" font-family="sans-serif" font-size="14.00"> &#160;Module</text>
<polygon fill="#80b1d3" stroke="transparent" points="213,-10 213,-30 233,-30 233,-10 213,-10"/>
<text text-anchor="start" x="236.78" y="-15.4" font-family="sans-serif" font-size="14.00"> &#160;Bootstrap</text>
<polygon fill="#fdb462" stroke="transparent" points="310,-10 310,-30 330,-30 330,-10 310,-10"/>
<text text-anchor="start" x="333.67" y="-15.4" font-family="sans-serif" font-size="14.00"> &#160;Providers</text>
<polygon fill="#fb8072" stroke="transparent" points="406,-10 406,-30 426,-30 426,-10 406,-10"/>
<text text-anchor="start" x="429.73" y="-15.4" font-family="sans-serif" font-size="14.00"> &#160;Exports</text>
<g id="clust1" class="cluster">
<title>cluster_UsersModule</title>
<polygon fill="none" stroke="black" stroke-dasharray="1,5" points="89,-70 89,-268 407,-268 407,-70 89,-70"/>
</g>
<g id="clust4" class="cluster">
<title>cluster_UsersModule_exports</title>
<polygon fill="none" stroke="black" points="118,-208 118,-260 353,-260 353,-208 118,-208"/>
</g>
<g id="clust6" class="cluster">
<title>cluster_UsersModule_providers</title>
<polygon fill="none" stroke="black" points="97,-78 97,-130 399,-130 399,-78 97,-78"/>
</g>
<!-- UserRepository  -->
<g id="node1" class="node">
<title>UserRepository </title>
<polygon fill="#fb8072" stroke="black" points="344.86,-252 237.14,-252 237.14,-216 344.86,-216 344.86,-252"/>
<text text-anchor="middle" x="291" y="-229.8" font-family="Times,serif" font-size="14.00">UserRepository </text>
</g>
<!-- UsersService  -->
<g id="node2" class="node">
<title>UsersService </title>
<polygon fill="#fb8072" stroke="black" points="219.85,-252 126.15,-252 126.15,-216 219.85,-216 219.85,-252"/>
<text text-anchor="middle" x="173" y="-229.8" font-family="Times,serif" font-size="14.00">UsersService </text>
</g>
<!-- UsersModule -->
<g id="node3" class="node">
<title>UsersModule</title>
<polygon fill="#8dd3c7" stroke="black" points="238.92,-187 235.92,-191 214.92,-191 211.92,-187 147.08,-187 147.08,-151 238.92,-151 238.92,-187"/>
<text text-anchor="middle" x="193" y="-164.8" font-family="Times,serif" font-size="14.00">UsersModule</text>
</g>
<!-- UsersModule&#45;&gt;UserRepository  -->
<g id="edge1" class="edge">
<title>UsersModule&#45;&gt;UserRepository </title>
<path fill="none" stroke="black" stroke-dasharray="5,2" d="M238.77,-169C241.42,-169 243.03,-169 243.03,-169 243.03,-169 243.03,-205.89 243.03,-205.89"/>
<polygon fill="black" stroke="black" points="239.53,-205.89 243.03,-215.89 246.53,-205.89 239.53,-205.89"/>
</g>
<!-- UsersModule&#45;&gt;UsersService  -->
<g id="edge2" class="edge">
<title>UsersModule&#45;&gt;UsersService </title>
<path fill="none" stroke="black" stroke-dasharray="5,2" d="M183.48,-187.11C183.48,-187.11 183.48,-205.99 183.48,-205.99"/>
<polygon fill="black" stroke="black" points="179.98,-205.99 183.48,-215.99 186.98,-205.99 179.98,-205.99"/>
</g>
<!-- UserRepository -->
<g id="node4" class="node">
<title>UserRepository</title>
<ellipse fill="#fdb462" stroke="black" cx="319" cy="-104" rx="71.79" ry="18"/>
<text text-anchor="middle" x="319" y="-99.8" font-family="Times,serif" font-size="14.00">UserRepository</text>
</g>
<!-- UserRepository&#45;&gt;UsersModule -->
<g id="edge3" class="edge">
<title>UserRepository&#45;&gt;UsersModule</title>
<path fill="none" stroke="black" d="M247.15,-104C239.17,-104 233.84,-104 233.84,-104 233.84,-104 233.84,-140.89 233.84,-140.89"/>
<polygon fill="black" stroke="black" points="230.34,-140.89 233.84,-150.89 237.34,-140.89 230.34,-140.89"/>
</g>
<!-- UsersService -->
<g id="node5" class="node">
<title>UsersService</title>
<ellipse fill="#fdb462" stroke="black" cx="167" cy="-104" rx="61.95" ry="18"/>
<text text-anchor="middle" x="167" y="-99.8" font-family="Times,serif" font-size="14.00">UsersService</text>
</g>
<!-- UsersService&#45;&gt;UsersModule -->
<g id="edge4" class="edge">
<title>UsersService&#45;&gt;UsersModule</title>
<path fill="none" stroke="black" d="M188.13,-121.08C188.13,-121.08 188.13,-140.9 188.13,-140.9"/>
<polygon fill="black" stroke="black" points="184.63,-140.9 188.13,-150.9 191.63,-140.9 184.63,-140.9"/>
</g>
</g>
</svg>
