<?xml version="1.0" encoding="UTF-8" standalone="no"?>
<!DOCTYPE svg PUBLIC "-//W3C//DTD SVG 1.1//EN"
 "http://www.w3.org/Graphics/SVG/1.1/DTD/svg11.dtd">
<!-- Generated by graphviz version 2.44.1 (20200629.0846)
 -->
<!-- Title: dependencies Pages: 1 -->
<svg width="852pt" height="211pt"
 viewBox="0.00 0.00 852.00 211.00" xmlns="http://www.w3.org/2000/svg" xmlns:xlink="http://www.w3.org/1999/xlink">
<g id="graph0" class="graph" transform="scale(1 1) rotate(0) translate(4 207)">
<title>dependencies</title>
<polygon fill="white" stroke="transparent" points="-4,4 -4,-207 848,-207 848,4 -4,4"/>
<text text-anchor="start" x="401.01" y="-42.4" font-family="sans-serif" font-weight="bold" font-size="14.00">Legend</text>
<polygon fill="#ffffb3" stroke="transparent" points="188,-10 188,-30 208,-30 208,-10 188,-10"/>
<text text-anchor="start" x="211.63" y="-15.4" font-family="sans-serif" font-size="14.00"> &#160;Declarations</text>
<polygon fill="#8dd3c7" stroke="transparent" points="301,-10 301,-30 321,-30 321,-10 301,-10"/>
<text text-anchor="start" x="324.73" y="-15.4" font-family="sans-serif" font-size="14.00"> &#160;Module</text>
<polygon fill="#80b1d3" stroke="transparent" points="387,-10 387,-30 407,-30 407,-10 387,-10"/>
<text text-anchor="start" x="410.78" y="-15.4" font-family="sans-serif" font-size="14.00"> &#160;Bootstrap</text>
<polygon fill="#fdb462" stroke="transparent" points="484,-10 484,-30 504,-30 504,-10 484,-10"/>
<text text-anchor="start" x="507.67" y="-15.4" font-family="sans-serif" font-size="14.00"> &#160;Providers</text>
<polygon fill="#fb8072" stroke="transparent" points="580,-10 580,-30 600,-30 600,-10 580,-10"/>
<text text-anchor="start" x="603.73" y="-15.4" font-family="sans-serif" font-size="14.00"> &#160;Exports</text>
<g id="clust1" class="cluster">
<title>cluster_AppModule</title>
<polygon fill="none" stroke="black" stroke-dasharray="1,5" points="8,-70 8,-195 836,-195 836,-70 8,-70"/>
</g>
<g id="clust3" class="cluster">
<title>cluster_AppModule_imports</title>
<polygon fill="none" stroke="black" points="154,-78 154,-130 828,-130 828,-78 154,-78"/>
</g>
<g id="clust6" class="cluster">
<title>cluster_AppModule_providers</title>
<polygon fill="none" stroke="black" points="16,-78 16,-130 146,-130 146,-78 16,-78"/>
</g>
<!-- AdminModule -->
<g id="node1" class="node">
<title>AdminModule</title>
<polygon fill="#8dd3c7" stroke="black" points="820.44,-122 817.44,-126 796.44,-126 793.44,-122 721.56,-122 721.56,-86 820.44,-86 820.44,-122"/>
<text text-anchor="middle" x="771" y="-99.8" font-family="Times,serif" font-size="14.00">AdminModule</text>
</g>
<!-- AppModule -->
<g id="node7" class="node">
<title>AppModule</title>
<polygon fill="#8dd3c7" stroke="black" points="481.66,-187 478.66,-191 457.66,-191 454.66,-187 398.34,-187 398.34,-151 481.66,-151 481.66,-187"/>
<text text-anchor="middle" x="440" y="-164.8" font-family="Times,serif" font-size="14.00">AppModule</text>
</g>
<!-- AdminModule&#45;&gt;AppModule -->
<g id="edge1" class="edge">
<title>AdminModule&#45;&gt;AppModule</title>
<path fill="none" stroke="black" d="M771,-122.29C771,-144.21 771,-178 771,-178 771,-178 491.92,-178 491.92,-178"/>
<polygon fill="black" stroke="black" points="491.92,-174.5 481.92,-178 491.92,-181.5 491.92,-174.5"/>
</g>
<!-- AuthModule -->
<g id="node2" class="node">
<title>AuthModule</title>
<polygon fill="#8dd3c7" stroke="black" points="703.55,-122 700.55,-126 679.55,-126 676.55,-122 616.45,-122 616.45,-86 703.55,-86 703.55,-122"/>
<text text-anchor="middle" x="660" y="-99.8" font-family="Times,serif" font-size="14.00">AuthModule</text>
</g>
<!-- AuthModule&#45;&gt;AppModule -->
<g id="edge2" class="edge">
<title>AuthModule&#45;&gt;AppModule</title>
<path fill="none" stroke="black" d="M660,-122.11C660,-141.34 660,-169 660,-169 660,-169 491.9,-169 491.9,-169"/>
<polygon fill="black" stroke="black" points="491.9,-165.5 481.9,-169 491.9,-172.5 491.9,-165.5"/>
</g>
<!-- DormModule -->
<g id="node3" class="node">
<title>DormModule</title>
<polygon fill="#8dd3c7" stroke="black" points="598.21,-122 595.21,-126 574.21,-126 571.21,-122 505.79,-122 505.79,-86 598.21,-86 598.21,-122"/>
<text text-anchor="middle" x="552" y="-99.8" font-family="Times,serif" font-size="14.00">DormModule</text>
</g>
<!-- DormModule&#45;&gt;AppModule -->
<g id="edge3" class="edge">
<title>DormModule&#45;&gt;AppModule</title>
<path fill="none" stroke="black" d="M552,-122.03C552,-138.4 552,-160 552,-160 552,-160 491.7,-160 491.7,-160"/>
<polygon fill="black" stroke="black" points="491.7,-156.5 481.7,-160 491.7,-163.5 491.7,-156.5"/>
</g>
<!-- LobbyModule -->
<g id="node4" class="node">
<title>LobbyModule</title>
<polygon fill="#8dd3c7" stroke="black" points="488.1,-122 485.1,-126 464.1,-126 461.1,-122 391.9,-122 391.9,-86 488.1,-86 488.1,-122"/>
<text text-anchor="middle" x="440" y="-99.8" font-family="Times,serif" font-size="14.00">LobbyModule</text>
</g>
<!-- LobbyModule&#45;&gt;AppModule -->
<g id="edge4" class="edge">
<title>LobbyModule&#45;&gt;AppModule</title>
<path fill="none" stroke="black" d="M440,-122.11C440,-122.11 440,-140.99 440,-140.99"/>
<polygon fill="black" stroke="black" points="436.5,-140.99 440,-150.99 443.5,-140.99 436.5,-140.99"/>
</g>
<!-- ReviewModule -->
<g id="node5" class="node">
<title>ReviewModule</title>
<polygon fill="#8dd3c7" stroke="black" points="374.31,-122 371.31,-126 350.31,-126 347.31,-122 271.69,-122 271.69,-86 374.31,-86 374.31,-122"/>
<text text-anchor="middle" x="323" y="-99.8" font-family="Times,serif" font-size="14.00">ReviewModule</text>
</g>
<!-- ReviewModule&#45;&gt;AppModule -->
<g id="edge5" class="edge">
<title>ReviewModule&#45;&gt;AppModule</title>
<path fill="none" stroke="black" d="M323,-122.03C323,-138.4 323,-160 323,-160 323,-160 388.09,-160 388.09,-160"/>
<polygon fill="black" stroke="black" points="388.09,-163.5 398.09,-160 388.09,-156.5 388.09,-163.5"/>
</g>
<!-- UsersModule -->
<g id="node6" class="node">
<title>UsersModule</title>
<polygon fill="#8dd3c7" stroke="black" points="253.92,-122 250.92,-126 229.92,-126 226.92,-122 162.08,-122 162.08,-86 253.92,-86 253.92,-122"/>
<text text-anchor="middle" x="208" y="-99.8" font-family="Times,serif" font-size="14.00">UsersModule</text>
</g>
<!-- UsersModule&#45;&gt;AppModule -->
<g id="edge6" class="edge">
<title>UsersModule&#45;&gt;AppModule</title>
<path fill="none" stroke="black" d="M208,-122.11C208,-141.34 208,-169 208,-169 208,-169 388.26,-169 388.26,-169"/>
<polygon fill="black" stroke="black" points="388.26,-172.5 398.26,-169 388.26,-165.5 388.26,-172.5"/>
</g>
<!-- AppService -->
<g id="node8" class="node">
<title>AppService</title>
<ellipse fill="#fdb462" stroke="black" cx="81" cy="-104" rx="56.74" ry="18"/>
<text text-anchor="middle" x="81" y="-99.8" font-family="Times,serif" font-size="14.00">AppService</text>
</g>
<!-- AppService&#45;&gt;AppModule -->
<g id="edge7" class="edge">
<title>AppService&#45;&gt;AppModule</title>
<path fill="none" stroke="black" d="M81,-122.29C81,-144.21 81,-178 81,-178 81,-178 388.12,-178 388.12,-178"/>
<polygon fill="black" stroke="black" points="388.12,-181.5 398.12,-178 388.12,-174.5 388.12,-181.5"/>
</g>
</g>
</svg>
