<?xml version="1.0" encoding="UTF-8" standalone="no"?>
<!DOCTYPE svg PUBLIC "-//W3C//DTD SVG 1.1//EN"
 "http://www.w3.org/Graphics/SVG/1.1/DTD/svg11.dtd">
<!-- Generated by graphviz version 2.44.1 (20200629.0846)
 -->
<!-- Title: dependencies Pages: 1 -->
<svg width="504pt" height="284pt"
 viewBox="0.00 0.00 504.00 284.00" xmlns="http://www.w3.org/2000/svg" xmlns:xlink="http://www.w3.org/1999/xlink">
<g id="graph0" class="graph" transform="scale(1 1) rotate(0) translate(4 280)">
<title>dependencies</title>
<polygon fill="white" stroke="transparent" points="-4,4 -4,-280 500,-280 500,4 -4,4"/>
<text text-anchor="start" x="227.01" y="-42.4" font-family="sans-serif" font-weight="bold" font-size="14.00">Legend</text>
<polygon fill="#ffffb3" stroke="transparent" points="14,-10 14,-30 34,-30 34,-10 14,-10"/>
<text text-anchor="start" x="37.63" y="-15.4" font-family="sans-serif" font-size="14.00"> &#160;Declarations</text>
<polygon fill="#8dd3c7" stroke="transparent" points="127,-10 127,-30 147,-30 147,-10 127,-10"/>
<text text-anchor="start" x="150.73" y="-15.4" font-family="sans-serif" font-size="14.00"> &#160;Module</text>
<polygon fill="#80b1d3" stroke="transparent" points="213,-10 213,-30 233,-30 233,-10 213,-10"/>
<text text-anchor="start" x="236.78" y="-15.4" font-family="sans-serif" font-size="14.00"> &#160;Bootstrap</text>
<polygon fill="#fdb462" stroke="transparent" points="310,-10 310,-30 330,-30 330,-10 310,-10"/>
<text text-anchor="start" x="333.67" y="-15.4" font-family="sans-serif" font-size="14.00"> &#160;Providers</text>
<polygon fill="#fb8072" stroke="transparent" points="406,-10 406,-30 426,-30 426,-10 406,-10"/>
<text text-anchor="start" x="429.73" y="-15.4" font-family="sans-serif" font-size="14.00"> &#160;Exports</text>
<g id="clust1" class="cluster">
<title>cluster_DormModule</title>
<polygon fill="none" stroke="black" stroke-dasharray="1,5" points="111,-70 111,-268 385,-268 385,-70 111,-70"/>
</g>
<g id="clust6" class="cluster">
<title>cluster_DormModule_providers</title>
<polygon fill="none" stroke="black" points="235,-78 235,-130 377,-130 377,-78 235,-78"/>
</g>
<g id="clust4" class="cluster">
<title>cluster_DormModule_exports</title>
<polygon fill="none" stroke="black" points="185,-208 185,-260 295,-260 295,-208 185,-208"/>
</g>
<g id="clust3" class="cluster">
<title>cluster_DormModule_imports</title>
<polygon fill="none" stroke="black" points="119,-78 119,-130 227,-130 227,-78 119,-78"/>
</g>
<!-- UsersModule -->
<g id="node1" class="node">
<title>UsersModule</title>
<polygon fill="#8dd3c7" stroke="black" points="218.92,-122 215.92,-126 194.92,-126 191.92,-122 127.08,-122 127.08,-86 218.92,-86 218.92,-122"/>
<text text-anchor="middle" x="173" y="-99.8" font-family="Times,serif" font-size="14.00">UsersModule</text>
</g>
<!-- DormModule -->
<g id="node2" class="node">
<title>DormModule</title>
<polygon fill="#8dd3c7" stroke="black" points="286.21,-187 283.21,-191 262.21,-191 259.21,-187 193.79,-187 193.79,-151 286.21,-151 286.21,-187"/>
<text text-anchor="middle" x="240" y="-164.8" font-family="Times,serif" font-size="14.00">DormModule</text>
</g>
<!-- UsersModule&#45;&gt;DormModule -->
<g id="edge1" class="edge">
<title>UsersModule&#45;&gt;DormModule</title>
<path fill="none" stroke="black" d="M206.3,-122.11C206.3,-122.11 206.3,-140.99 206.3,-140.99"/>
<polygon fill="black" stroke="black" points="202.8,-140.99 206.3,-150.99 209.8,-140.99 202.8,-140.99"/>
</g>
<!-- DormService  -->
<g id="node3" class="node">
<title>DormService </title>
<polygon fill="#fb8072" stroke="black" points="287.14,-252 192.86,-252 192.86,-216 287.14,-216 287.14,-252"/>
<text text-anchor="middle" x="240" y="-229.8" font-family="Times,serif" font-size="14.00">DormService </text>
</g>
<!-- DormModule&#45;&gt;DormService  -->
<g id="edge2" class="edge">
<title>DormModule&#45;&gt;DormService </title>
<path fill="none" stroke="black" stroke-dasharray="5,2" d="M240,-187.11C240,-187.11 240,-205.99 240,-205.99"/>
<polygon fill="black" stroke="black" points="236.5,-205.99 240,-215.99 243.5,-205.99 236.5,-205.99"/>
</g>
<!-- DormService -->
<g id="node4" class="node">
<title>DormService</title>
<ellipse fill="#fdb462" stroke="black" cx="306" cy="-104" rx="62.54" ry="18"/>
<text text-anchor="middle" x="306" y="-99.8" font-family="Times,serif" font-size="14.00">DormService</text>
</g>
<!-- DormService&#45;&gt;DormModule -->
<g id="edge3" class="edge">
<title>DormService&#45;&gt;DormModule</title>
<path fill="none" stroke="black" d="M264.79,-117.78C264.79,-117.78 264.79,-140.55 264.79,-140.55"/>
<polygon fill="black" stroke="black" points="261.29,-140.55 264.79,-150.55 268.29,-140.55 261.29,-140.55"/>
</g>
</g>
</svg>
