<?xml version="1.0" encoding="UTF-8" standalone="no"?>
<!DOCTYPE svg PUBLIC "-//W3C//DTD SVG 1.1//EN"
 "http://www.w3.org/Graphics/SVG/1.1/DTD/svg11.dtd">
<!-- Generated by graphviz version 2.44.1 (20200629.0846)
 -->
<!-- Title: dependencies Pages: 1 -->
<svg width="504pt" height="211pt"
 viewBox="0.00 0.00 504.00 211.00" xmlns="http://www.w3.org/2000/svg" xmlns:xlink="http://www.w3.org/1999/xlink">
<g id="graph0" class="graph" transform="scale(1 1) rotate(0) translate(4 207)">
<title>dependencies</title>
<polygon fill="white" stroke="transparent" points="-4,4 -4,-207 500,-207 500,4 -4,4"/>
<text text-anchor="start" x="227.01" y="-42.4" font-family="sans-serif" font-weight="bold" font-size="14.00">Legend</text>
<polygon fill="#ffffb3" stroke="transparent" points="14,-10 14,-30 34,-30 34,-10 14,-10"/>
<text text-anchor="start" x="37.63" y="-15.4" font-family="sans-serif" font-size="14.00"> &#160;Declarations</text>
<polygon fill="#8dd3c7" stroke="transparent" points="127,-10 127,-30 147,-30 147,-10 127,-10"/>
<text text-anchor="start" x="150.73" y="-15.4" font-family="sans-serif" font-size="14.00"> &#160;Module</text>
<polygon fill="#80b1d3" stroke="transparent" points="213,-10 213,-30 233,-30 233,-10 213,-10"/>
<text text-anchor="start" x="236.78" y="-15.4" font-family="sans-serif" font-size="14.00"> &#160;Bootstrap</text>
<polygon fill="#fdb462" stroke="transparent" points="310,-10 310,-30 330,-30 330,-10 310,-10"/>
<text text-anchor="start" x="333.67" y="-15.4" font-family="sans-serif" font-size="14.00"> &#160;Providers</text>
<polygon fill="#fb8072" stroke="transparent" points="406,-10 406,-30 426,-30 426,-10 406,-10"/>
<text text-anchor="start" x="429.73" y="-15.4" font-family="sans-serif" font-size="14.00"> &#160;Exports</text>
<g id="clust1" class="cluster">
<title>cluster_LobbyModule</title>
<polygon fill="none" stroke="black" stroke-dasharray="1,5" points="54,-70 54,-195 442,-195 442,-70 54,-70"/>
</g>
<g id="clust3" class="cluster">
<title>cluster_LobbyModule_imports</title>
<polygon fill="none" stroke="black" points="216,-78 216,-130 434,-130 434,-78 216,-78"/>
</g>
<g id="clust6" class="cluster">
<title>cluster_LobbyModule_providers</title>
<polygon fill="none" stroke="black" points="62,-78 62,-130 208,-130 208,-78 62,-78"/>
</g>
<!-- DormModule -->
<g id="node1" class="node">
<title>DormModule</title>
<polygon fill="#8dd3c7" stroke="black" points="426.21,-122 423.21,-126 402.21,-126 399.21,-122 333.79,-122 333.79,-86 426.21,-86 426.21,-122"/>
<text text-anchor="middle" x="380" y="-99.8" font-family="Times,serif" font-size="14.00">DormModule</text>
</g>
<!-- LobbyModule -->
<g id="node3" class="node">
<title>LobbyModule</title>
<polygon fill="#8dd3c7" stroke="black" points="318.1,-187 315.1,-191 294.1,-191 291.1,-187 221.9,-187 221.9,-151 318.1,-151 318.1,-187"/>
<text text-anchor="middle" x="270" y="-164.8" font-family="Times,serif" font-size="14.00">LobbyModule</text>
</g>
<!-- DormModule&#45;&gt;LobbyModule -->
<g id="edge1" class="edge">
<title>DormModule&#45;&gt;LobbyModule</title>
<path fill="none" stroke="black" d="M380,-122.11C380,-141.34 380,-169 380,-169 380,-169 328.25,-169 328.25,-169"/>
<polygon fill="black" stroke="black" points="328.25,-165.5 318.25,-169 328.25,-172.5 328.25,-165.5"/>
</g>
<!-- UsersModule -->
<g id="node2" class="node">
<title>UsersModule</title>
<polygon fill="#8dd3c7" stroke="black" points="315.92,-122 312.92,-126 291.92,-126 288.92,-122 224.08,-122 224.08,-86 315.92,-86 315.92,-122"/>
<text text-anchor="middle" x="270" y="-99.8" font-family="Times,serif" font-size="14.00">UsersModule</text>
</g>
<!-- UsersModule&#45;&gt;LobbyModule -->
<g id="edge2" class="edge">
<title>UsersModule&#45;&gt;LobbyModule</title>
<path fill="none" stroke="black" d="M270,-122.11C270,-122.11 270,-140.99 270,-140.99"/>
<polygon fill="black" stroke="black" points="266.5,-140.99 270,-150.99 273.5,-140.99 266.5,-140.99"/>
</g>
<!-- LobbyService -->
<g id="node4" class="node">
<title>LobbyService</title>
<ellipse fill="#fdb462" stroke="black" cx="135" cy="-104" rx="65.41" ry="18"/>
<text text-anchor="middle" x="135" y="-99.8" font-family="Times,serif" font-size="14.00">LobbyService</text>
</g>
<!-- LobbyService&#45;&gt;LobbyModule -->
<g id="edge3" class="edge">
<title>LobbyService&#45;&gt;LobbyModule</title>
<path fill="none" stroke="black" d="M135,-122.11C135,-141.34 135,-169 135,-169 135,-169 211.64,-169 211.64,-169"/>
<polygon fill="black" stroke="black" points="211.64,-172.5 221.64,-169 211.64,-165.5 211.64,-172.5"/>
</g>
</g>
</svg>
