<?xml version="1.0" encoding="UTF-8" standalone="no"?>
<!DOCTYPE svg PUBLIC "-//W3C//DTD SVG 1.1//EN"
 "http://www.w3.org/Graphics/SVG/1.1/DTD/svg11.dtd">
<!-- Generated by graphviz version 2.44.1 (20200629.0846)
 -->
<!-- Title: dependencies Pages: 1 -->
<svg width="1389pt" height="439pt"
 viewBox="0.00 0.00 1389.00 439.00" xmlns="http://www.w3.org/2000/svg" xmlns:xlink="http://www.w3.org/1999/xlink">
<g id="graph0" class="graph" transform="scale(1 1) rotate(0) translate(4 435)">
<title>dependencies</title>
<polygon fill="white" stroke="transparent" points="-4,4 -4,-435 1385,-435 1385,4 -4,4"/>
<text text-anchor="start" x="669.51" y="-42.4" font-family="sans-serif" font-weight="bold" font-size="14.00">Legend</text>
<polygon fill="#ffffb3" stroke="transparent" points="456.5,-10 456.5,-30 476.5,-30 476.5,-10 456.5,-10"/>
<text text-anchor="start" x="480.13" y="-15.4" font-family="sans-serif" font-size="14.00"> &#160;Declarations</text>
<polygon fill="#8dd3c7" stroke="transparent" points="569.5,-10 569.5,-30 589.5,-30 589.5,-10 569.5,-10"/>
<text text-anchor="start" x="593.23" y="-15.4" font-family="sans-serif" font-size="14.00"> &#160;Module</text>
<polygon fill="#80b1d3" stroke="transparent" points="655.5,-10 655.5,-30 675.5,-30 675.5,-10 655.5,-10"/>
<text text-anchor="start" x="679.28" y="-15.4" font-family="sans-serif" font-size="14.00"> &#160;Bootstrap</text>
<polygon fill="#fdb462" stroke="transparent" points="752.5,-10 752.5,-30 772.5,-30 772.5,-10 752.5,-10"/>
<text text-anchor="start" x="776.17" y="-15.4" font-family="sans-serif" font-size="14.00"> &#160;Providers</text>
<polygon fill="#fb8072" stroke="transparent" points="848.5,-10 848.5,-30 868.5,-30 868.5,-10 848.5,-10"/>
<text text-anchor="start" x="872.23" y="-15.4" font-family="sans-serif" font-size="14.00"> &#160;Exports</text>
<g id="clust1" class="cluster">
<title>cluster_AdminModule</title>
<polygon fill="none" stroke="black" stroke-dasharray="1,5" points="8,-146 8,-423 304,-423 304,-146 8,-146"/>
</g>
<g id="clust3" class="cluster">
<title>cluster_AdminModule_imports</title>
<polygon fill="none" stroke="black" points="188,-154 188,-271 296,-271 296,-154 188,-154"/>
</g>
<g id="clust4" class="cluster">
<title>cluster_AdminModule_exports</title>
<polygon fill="none" stroke="black" points="129,-363 129,-415 245,-415 245,-363 129,-363"/>
</g>
<g id="clust6" class="cluster">
<title>cluster_AdminModule_providers</title>
<polygon fill="none" stroke="black" points="16,-219 16,-271 166,-271 166,-219 16,-219"/>
</g>
<g id="clust7" class="cluster">
<title>cluster_AppModule</title>
<polygon fill="none" stroke="black" stroke-dasharray="1,5" points="596,-287 596,-415 1088,-415 1088,-287 596,-287"/>
</g>
<g id="clust9" class="cluster">
<title>cluster_AppModule_imports</title>
<polygon fill="none" stroke="black" points="742,-295 742,-347 1080,-347 1080,-295 742,-295"/>
</g>
<g id="clust12" class="cluster">
<title>cluster_AppModule_providers</title>
<polygon fill="none" stroke="black" points="604,-295 604,-347 734,-347 734,-295 604,-295"/>
</g>
<g id="clust13" class="cluster">
<title>cluster_AuthModule</title>
<polygon fill="none" stroke="black" stroke-dasharray="1,5" points="164,-70 164,-138 737,-138 737,-70 164,-70"/>
</g>
<g id="clust18" class="cluster">
<title>cluster_AuthModule_providers</title>
<polygon fill="none" stroke="black" points="172,-78 172,-130 729,-130 729,-78 172,-78"/>
</g>
<g id="clust19" class="cluster">
<title>cluster_DormModule</title>
<polygon fill="none" stroke="black" stroke-dasharray="1,5" points="312,-287 312,-355 588,-355 588,-287 312,-287"/>
</g>
<g id="clust22" class="cluster">
<title>cluster_DormModule_exports</title>
<polygon fill="none" stroke="black" points="470,-295 470,-347 580,-347 580,-295 470,-295"/>
</g>
<g id="clust24" class="cluster">
<title>cluster_DormModule_providers</title>
<polygon fill="none" stroke="black" points="320,-295 320,-347 462,-347 462,-295 320,-295"/>
</g>
<g id="clust25" class="cluster">
<title>cluster_LobbyModule</title>
<polygon fill="none" stroke="black" stroke-dasharray="1,5" points="1033,-211 1033,-279 1195,-279 1195,-211 1033,-211"/>
</g>
<g id="clust30" class="cluster">
<title>cluster_LobbyModule_providers</title>
<polygon fill="none" stroke="black" points="1041,-219 1041,-271 1187,-271 1187,-219 1041,-219"/>
</g>
<g id="clust31" class="cluster">
<title>cluster_ReviewModule</title>
<polygon fill="none" stroke="black" stroke-dasharray="1,5" points="1203,-211 1203,-279 1373,-279 1373,-211 1203,-211"/>
</g>
<g id="clust36" class="cluster">
<title>cluster_ReviewModule_providers</title>
<polygon fill="none" stroke="black" points="1211,-219 1211,-271 1365,-271 1365,-219 1211,-219"/>
</g>
<g id="clust37" class="cluster">
<title>cluster_UsersModule</title>
<polygon fill="none" stroke="black" stroke-dasharray="1,5" points="578,-211 578,-279 997,-279 997,-211 578,-211"/>
</g>
<g id="clust40" class="cluster">
<title>cluster_UsersModule_exports</title>
<polygon fill="none" stroke="black" points="754,-219 754,-271 989,-271 989,-219 754,-219"/>
</g>
<g id="clust42" class="cluster">
<title>cluster_UsersModule_providers</title>
<polygon fill="none" stroke="black" points="586,-219 586,-271 746,-271 746,-219 586,-219"/>
</g>
<!-- DormModule -->
<g id="node1" class="node">
<title>DormModule</title>
<polygon fill="#8dd3c7" stroke="black" points="288.21,-263 285.21,-267 264.21,-267 261.21,-263 195.79,-263 195.79,-227 288.21,-227 288.21,-263"/>
<text text-anchor="middle" x="242" y="-240.8" font-family="Times,serif" font-size="14.00">DormModule</text>
</g>
<!-- AdminModule -->
<g id="node3" class="node">
<title>AdminModule</title>
<polygon fill="#8dd3c7" stroke="black" points="236.44,-339 233.44,-343 212.44,-343 209.44,-339 137.56,-339 137.56,-303 236.44,-303 236.44,-339"/>
<text text-anchor="middle" x="187" y="-316.8" font-family="Times,serif" font-size="14.00">AdminModule</text>
</g>
<!-- DormModule&#45;&gt;AdminModule -->
<g id="edge1" class="edge">
<title>DormModule&#45;&gt;AdminModule</title>
<path fill="none" stroke="black" d="M216.06,-263.01C216.06,-263.01 216.06,-292.85 216.06,-292.85"/>
<polygon fill="black" stroke="black" points="212.56,-292.85 216.06,-302.85 219.56,-292.85 212.56,-292.85"/>
</g>
<!-- LobbyModule -->
<g id="node7" class="node">
<title>LobbyModule</title>
<polygon fill="#8dd3c7" stroke="black" points="846.1,-339 843.1,-343 822.1,-343 819.1,-339 749.9,-339 749.9,-303 846.1,-303 846.1,-339"/>
<text text-anchor="middle" x="798" y="-316.8" font-family="Times,serif" font-size="14.00">LobbyModule</text>
</g>
<!-- DormModule&#45;&gt;LobbyModule -->
<g id="edge20" class="edge">
<title>DormModule&#45;&gt;LobbyModule</title>
<path fill="none" stroke="black" d="M262.64,-263.04C262.64,-275.56 262.64,-290 262.64,-290 262.64,-290 754.07,-290 754.07,-290 754.07,-290 754.07,-292.97 754.07,-292.97"/>
<polygon fill="black" stroke="black" points="750.57,-292.97 754.07,-302.97 757.57,-292.97 750.57,-292.97"/>
</g>
<!-- AppModule -->
<g id="node9" class="node">
<title>AppModule</title>
<polygon fill="#8dd3c7" stroke="black" points="839.66,-407 836.66,-411 815.66,-411 812.66,-407 756.34,-407 756.34,-371 839.66,-371 839.66,-407"/>
<text text-anchor="middle" x="798" y="-384.8" font-family="Times,serif" font-size="14.00">AppModule</text>
</g>
<!-- DormModule&#45;&gt;AppModule -->
<g id="edge7" class="edge">
<title>DormModule&#45;&gt;AppModule</title>
<path fill="none" stroke="black" d="M249.91,-263.08C249.91,-303.97 249.91,-400 249.91,-400 249.91,-400 745.9,-400 745.9,-400"/>
<polygon fill="black" stroke="black" points="745.9,-403.5 755.9,-400 745.9,-396.5 745.9,-403.5"/>
</g>
<!-- DormService  -->
<g id="node15" class="node">
<title>DormService </title>
<polygon fill="#fb8072" stroke="black" points="572.14,-339 477.86,-339 477.86,-303 572.14,-303 572.14,-339"/>
<text text-anchor="middle" x="525" y="-316.8" font-family="Times,serif" font-size="14.00">DormService </text>
</g>
<!-- DormModule&#45;&gt;DormService  -->
<g id="edge18" class="edge">
<title>DormModule&#45;&gt;DormService </title>
<path fill="none" stroke="black" stroke-dasharray="5,2" d="M288.41,-245C368.7,-245 525,-245 525,-245 525,-245 525,-292.99 525,-292.99"/>
<polygon fill="black" stroke="black" points="521.5,-292.99 525,-302.99 528.5,-292.99 521.5,-292.99"/>
</g>
<!-- UsersModule -->
<g id="node2" class="node">
<title>UsersModule</title>
<polygon fill="#8dd3c7" stroke="black" points="287.92,-198 284.92,-202 263.92,-202 260.92,-198 196.08,-198 196.08,-162 287.92,-162 287.92,-198"/>
<text text-anchor="middle" x="242" y="-175.8" font-family="Times,serif" font-size="14.00">UsersModule</text>
</g>
<!-- UsersModule&#45;&gt;DormModule -->
<g id="edge17" class="edge">
<title>UsersModule&#45;&gt;DormModule</title>
<path fill="none" stroke="black" d="M242,-198.11C242,-198.11 242,-216.99 242,-216.99"/>
<polygon fill="black" stroke="black" points="238.5,-216.99 242,-226.99 245.5,-216.99 238.5,-216.99"/>
</g>
<!-- UsersModule&#45;&gt;AdminModule -->
<g id="edge2" class="edge">
<title>UsersModule&#45;&gt;AdminModule</title>
<path fill="none" stroke="black" d="M195.93,-180C191.13,-180 187.96,-180 187.96,-180 187.96,-180 187.96,-292.86 187.96,-292.86"/>
<polygon fill="black" stroke="black" points="184.46,-292.86 187.96,-302.86 191.46,-292.86 184.46,-292.86"/>
</g>
<!-- AuthModule -->
<g id="node6" class="node">
<title>AuthModule</title>
<polygon fill="#8dd3c7" stroke="black" points="951.55,-339 948.55,-343 927.55,-343 924.55,-339 864.45,-339 864.45,-303 951.55,-303 951.55,-339"/>
<text text-anchor="middle" x="908" y="-316.8" font-family="Times,serif" font-size="14.00">AuthModule</text>
</g>
<!-- UsersModule&#45;&gt;AuthModule -->
<g id="edge12" class="edge">
<title>UsersModule&#45;&gt;AuthModule</title>
<path fill="none" stroke="black" d="M287.73,-173C434.08,-173 881.44,-173 881.44,-173 881.44,-173 881.44,-292.85 881.44,-292.85"/>
<polygon fill="black" stroke="black" points="877.94,-292.85 881.44,-302.85 884.94,-292.85 877.94,-292.85"/>
</g>
<!-- UsersModule&#45;&gt;LobbyModule -->
<g id="edge21" class="edge">
<title>UsersModule&#45;&gt;LobbyModule</title>
<path fill="none" stroke="black" d="M287.81,-183C414.14,-183 758.19,-183 758.19,-183 758.19,-183 758.19,-292.96 758.19,-292.96"/>
<polygon fill="black" stroke="black" points="754.7,-292.96 758.19,-302.96 761.7,-292.96 754.7,-292.96"/>
</g>
<!-- UsersModule&#45;&gt;AppModule -->
<g id="edge10" class="edge">
<title>UsersModule&#45;&gt;AppModule</title>
<path fill="none" stroke="black" d="M287.87,-193C352.38,-193 462.11,-193 462.11,-193 462.11,-193 462.11,-386 462.11,-386 462.11,-386 746.14,-386 746.14,-386"/>
<polygon fill="black" stroke="black" points="746.14,-389.5 756.14,-386 746.14,-382.5 746.14,-389.5"/>
</g>
<!-- UserRepository  -->
<g id="node19" class="node">
<title>UserRepository </title>
<polygon fill="#fb8072" stroke="black" points="869.86,-263 762.14,-263 762.14,-227 869.86,-227 869.86,-263"/>
<text text-anchor="middle" x="816" y="-240.8" font-family="Times,serif" font-size="14.00">UserRepository </text>
</g>
<!-- UsersModule&#45;&gt;UserRepository  -->
<g id="edge24" class="edge">
<title>UsersModule&#45;&gt;UserRepository </title>
<path fill="none" stroke="black" stroke-dasharray="5,2" d="M288,-178C424.21,-178 816,-178 816,-178 816,-178 816,-216.69 816,-216.69"/>
<polygon fill="black" stroke="black" points="812.5,-216.69 816,-226.69 819.5,-216.69 812.5,-216.69"/>
</g>
<!-- UsersService  -->
<g id="node20" class="node">
<title>UsersService </title>
<polygon fill="#fb8072" stroke="black" points="980.85,-263 887.15,-263 887.15,-227 980.85,-227 980.85,-263"/>
<text text-anchor="middle" x="934" y="-240.8" font-family="Times,serif" font-size="14.00">UsersService </text>
</g>
<!-- UsersModule&#45;&gt;UsersService  -->
<g id="edge25" class="edge">
<title>UsersModule&#45;&gt;UsersService </title>
<path fill="none" stroke="black" stroke-dasharray="5,2" d="M287.94,-168C442.5,-168 934,-168 934,-168 934,-168 934,-216.75 934,-216.75"/>
<polygon fill="black" stroke="black" points="930.5,-216.75 934,-226.75 937.5,-216.75 930.5,-216.75"/>
</g>
<!-- AdminService  -->
<g id="node4" class="node">
<title>AdminService </title>
<polygon fill="#fb8072" stroke="black" points="237.37,-407 136.63,-407 136.63,-371 237.37,-371 237.37,-407"/>
<text text-anchor="middle" x="187" y="-384.8" font-family="Times,serif" font-size="14.00">AdminService </text>
</g>
<!-- AdminModule&#45;&gt;AdminService  -->
<g id="edge3" class="edge">
<title>AdminModule&#45;&gt;AdminService </title>
<path fill="none" stroke="black" stroke-dasharray="5,2" d="M187,-339.22C187,-339.22 187,-360.73 187,-360.73"/>
<polygon fill="black" stroke="black" points="183.5,-360.73 187,-370.73 190.5,-360.73 183.5,-360.73"/>
</g>
<!-- AdminModule&#45;&gt;AppModule -->
<g id="edge5" class="edge">
<title>AdminModule&#45;&gt;AppModule</title>
<path fill="none" stroke="black" d="M236.31,-327C266.23,-327 298.69,-327 298.69,-327 298.69,-327 298.69,-393 298.69,-393 298.69,-393 746.29,-393 746.29,-393"/>
<polygon fill="black" stroke="black" points="746.29,-396.5 756.29,-393 746.29,-389.5 746.29,-396.5"/>
</g>
<!-- AdminService -->
<g id="node5" class="node">
<title>AdminService</title>
<ellipse fill="#fdb462" stroke="black" cx="91" cy="-245" rx="66.63" ry="18"/>
<text text-anchor="middle" x="91" y="-240.8" font-family="Times,serif" font-size="14.00">AdminService</text>
</g>
<!-- AdminService&#45;&gt;AdminModule -->
<g id="edge4" class="edge">
<title>AdminService&#45;&gt;AdminModule</title>
<path fill="none" stroke="black" d="M147.8,-254.63C147.8,-254.63 147.8,-292.75 147.8,-292.75"/>
<polygon fill="black" stroke="black" points="144.3,-292.75 147.8,-302.75 151.3,-292.75 144.3,-292.75"/>
</g>
<!-- AuthModule&#45;&gt;AppModule -->
<g id="edge6" class="edge">
<title>AuthModule&#45;&gt;AppModule</title>
<path fill="none" stroke="black" d="M908,-339.27C908,-357.56 908,-383 908,-383 908,-383 849.9,-383 849.9,-383"/>
<polygon fill="black" stroke="black" points="849.9,-379.5 839.9,-383 849.9,-386.5 849.9,-379.5"/>
</g>
<!-- LobbyModule&#45;&gt;AppModule -->
<g id="edge8" class="edge">
<title>LobbyModule&#45;&gt;AppModule</title>
<path fill="none" stroke="black" d="M798,-339.22C798,-339.22 798,-360.73 798,-360.73"/>
<polygon fill="black" stroke="black" points="794.5,-360.73 798,-370.73 801.5,-360.73 794.5,-360.73"/>
</g>
<!-- ReviewModule -->
<g id="node8" class="node">
<title>ReviewModule</title>
<polygon fill="#8dd3c7" stroke="black" points="1072.31,-339 1069.31,-343 1048.31,-343 1045.31,-339 969.69,-339 969.69,-303 1072.31,-303 1072.31,-339"/>
<text text-anchor="middle" x="1021" y="-316.8" font-family="Times,serif" font-size="14.00">ReviewModule</text>
</g>
<!-- ReviewModule&#45;&gt;AppModule -->
<g id="edge9" class="edge">
<title>ReviewModule&#45;&gt;AppModule</title>
<path fill="none" stroke="black" d="M1021,-339.29C1021,-361.21 1021,-395 1021,-395 1021,-395 849.68,-395 849.68,-395"/>
<polygon fill="black" stroke="black" points="849.68,-391.5 839.68,-395 849.68,-398.5 849.68,-391.5"/>
</g>
<!-- AppService -->
<g id="node10" class="node">
<title>AppService</title>
<ellipse fill="#fdb462" stroke="black" cx="669" cy="-321" rx="56.74" ry="18"/>
<text text-anchor="middle" x="669" y="-316.8" font-family="Times,serif" font-size="14.00">AppService</text>
</g>
<!-- AppService&#45;&gt;AppModule -->
<g id="edge11" class="edge">
<title>AppService&#45;&gt;AppModule</title>
<path fill="none" stroke="black" d="M669,-339.03C669,-356.06 669,-379 669,-379 669,-379 746.12,-379 746.12,-379"/>
<polygon fill="black" stroke="black" points="746.12,-382.5 756.12,-379 746.12,-375.5 746.12,-382.5"/>
</g>
<!-- AuthService -->
<g id="node11" class="node">
<title>AuthService</title>
<ellipse fill="#fdb462" stroke="black" cx="530" cy="-104" rx="59.11" ry="18"/>
<text text-anchor="middle" x="530" y="-99.8" font-family="Times,serif" font-size="14.00">AuthService</text>
</g>
<!-- AuthService&#45;&gt;AuthModule -->
<g id="edge13" class="edge">
<title>AuthService&#45;&gt;AuthModule</title>
<path fill="none" stroke="black" d="M580.69,-113.4C580.69,-148.52 580.69,-270 580.69,-270 580.69,-270 878.5,-270 878.5,-270 878.5,-270 878.5,-292.88 878.5,-292.88"/>
<polygon fill="black" stroke="black" points="875,-292.88 878.5,-302.88 882,-292.88 875,-292.88"/>
</g>
<!-- JwtStrategy -->
<g id="node12" class="node">
<title>JwtStrategy</title>
<ellipse fill="#fdb462" stroke="black" cx="664" cy="-104" rx="56.76" ry="18"/>
<text text-anchor="middle" x="664" y="-99.8" font-family="Times,serif" font-size="14.00">JwtStrategy</text>
</g>
<!-- JwtStrategy&#45;&gt;AuthModule -->
<g id="edge14" class="edge">
<title>JwtStrategy&#45;&gt;AuthModule</title>
<path fill="none" stroke="black" d="M720.75,-104C786.05,-104 884.39,-104 884.39,-104 884.39,-104 884.39,-292.87 884.39,-292.87"/>
<polygon fill="black" stroke="black" points="880.89,-292.87 884.39,-302.87 887.89,-292.87 880.89,-292.87"/>
</g>
<!-- LocalStrategy -->
<g id="node13" class="node">
<title>LocalStrategy</title>
<ellipse fill="#fdb462" stroke="black" cx="387" cy="-104" rx="65.41" ry="18"/>
<text text-anchor="middle" x="387" y="-99.8" font-family="Times,serif" font-size="14.00">LocalStrategy</text>
</g>
<!-- LocalStrategy&#45;&gt;AuthModule -->
<g id="edge15" class="edge">
<title>LocalStrategy&#45;&gt;AuthModule</title>
<path fill="none" stroke="black" d="M390.34,-122.19C390.34,-166.6 390.34,-277 390.34,-277 390.34,-277 875.56,-277 875.56,-277 875.56,-277 875.56,-292.85 875.56,-292.85"/>
<polygon fill="black" stroke="black" points="872.06,-292.85 875.56,-302.85 879.06,-292.85 872.06,-292.85"/>
</g>
<!-- UsersService -->
<g id="node14" class="node">
<title>UsersService</title>
<ellipse fill="#fdb462" stroke="black" cx="242" cy="-104" rx="61.95" ry="18"/>
<text text-anchor="middle" x="242" y="-99.8" font-family="Times,serif" font-size="14.00">UsersService</text>
</g>
<!-- UsersService&#45;&gt;UsersModule -->
<g id="edge27" class="edge">
<title>UsersService&#45;&gt;UsersModule</title>
<path fill="none" stroke="black" d="M242,-122.01C242,-122.01 242,-151.85 242,-151.85"/>
<polygon fill="black" stroke="black" points="238.5,-151.85 242,-161.85 245.5,-151.85 238.5,-151.85"/>
</g>
<!-- UsersService&#45;&gt;AuthModule -->
<g id="edge16" class="edge">
<title>UsersService&#45;&gt;AuthModule</title>
<path fill="none" stroke="black" d="M293.39,-114.14C293.39,-152 293.39,-283 293.39,-283 293.39,-283 872.62,-283 872.62,-283 872.62,-283 872.62,-292.89 872.62,-292.89"/>
<polygon fill="black" stroke="black" points="869.12,-292.89 872.62,-302.89 876.12,-292.89 869.12,-292.89"/>
</g>
<!-- DormService -->
<g id="node16" class="node">
<title>DormService</title>
<ellipse fill="#fdb462" stroke="black" cx="391" cy="-321" rx="62.54" ry="18"/>
<text text-anchor="middle" x="391" y="-316.8" font-family="Times,serif" font-size="14.00">DormService</text>
</g>
<!-- DormService&#45;&gt;DormModule -->
<g id="edge19" class="edge">
<title>DormService&#45;&gt;DormModule</title>
<path fill="none" stroke="black" d="M331.83,-315C303.38,-315 275.37,-315 275.37,-315 275.37,-315 275.37,-273.03 275.37,-273.03"/>
<polygon fill="black" stroke="black" points="278.87,-273.03 275.37,-263.03 271.87,-273.03 278.87,-273.03"/>
</g>
<!-- LobbyService -->
<g id="node17" class="node">
<title>LobbyService</title>
<ellipse fill="#fdb462" stroke="black" cx="1114" cy="-245" rx="65.41" ry="18"/>
<text text-anchor="middle" x="1114" y="-240.8" font-family="Times,serif" font-size="14.00">LobbyService</text>
</g>
<!-- LobbyService&#45;&gt;LobbyModule -->
<g id="edge22" class="edge">
<title>LobbyService&#45;&gt;LobbyModule</title>
<path fill="none" stroke="black" d="M1060.48,-255.52C1060.48,-270.72 1060.48,-297 1060.48,-297 1060.48,-297 804.18,-297 804.18,-297 804.18,-297 804.18,-297.58 804.18,-297.58"/>
<polygon fill="black" stroke="black" points="800.68,-292.81 804.18,-302.81 807.68,-292.81 800.68,-292.81"/>
</g>
<!-- ReviewService -->
<g id="node18" class="node">
<title>ReviewService</title>
<ellipse fill="#fdb462" stroke="black" cx="1288" cy="-245" rx="69.48" ry="18"/>
<text text-anchor="middle" x="1288" y="-240.8" font-family="Times,serif" font-size="14.00">ReviewService</text>
</g>
<!-- ReviewService&#45;&gt;ReviewModule -->
<g id="edge23" class="edge">
<title>ReviewService&#45;&gt;ReviewModule</title>
<path fill="none" stroke="black" d="M1288,-263.01C1288,-285.49 1288,-321 1288,-321 1288,-321 1082.16,-321 1082.16,-321"/>
<polygon fill="black" stroke="black" points="1082.16,-317.5 1072.16,-321 1082.16,-324.5 1082.16,-317.5"/>
</g>
<!-- UserRepository -->
<g id="node21" class="node">
<title>UserRepository</title>
<ellipse fill="#fdb462" stroke="black" cx="666" cy="-245" rx="71.79" ry="18"/>
<text text-anchor="middle" x="666" y="-240.8" font-family="Times,serif" font-size="14.00">UserRepository</text>
</g>
<!-- UserRepository&#45;&gt;UsersModule -->
<g id="edge26" class="edge">
<title>UserRepository&#45;&gt;UsersModule</title>
<path fill="none" stroke="black" d="M600.86,-237.07C600.86,-221.41 600.86,-188 600.86,-188 600.86,-188 297.81,-188 297.81,-188"/>
<polygon fill="black" stroke="black" points="297.81,-184.5 287.81,-188 297.81,-191.5 297.81,-184.5"/>
</g>
</g>
</svg>
